{"title":"TINY DP BOOTED TEEN GETS HER BOTTY LOOTED-SILVERDUST.avi","uid":5107864,"size":182011328,"categoryP":"porn","categoryS":"movie_clips","magnet":"?xt=urn:btih:3fa504563b17e7d95596bba773e2b67b52bb6bc9&amp;dn=TINY+DP+BOOTED+TEEN+GETS+HER+BOTTY+LOOTED-SILVERDUST.avi&amp;tr=udp%3A%2F%2Ftracker.openbittorrent.com%3A80&amp;tr=udp%3A%2F%2Fopen.demonii.com%3A1337&amp;tr=udp%3A%2F%2Ftracker.coppersurfer.tk%3A6969&amp;tr=udp%3A%2F%2Fexodus.desync.com%3A6969","seeders":0,"leechers":2,"uploader":"dodgerblue","files":1,"time":1254515183,"description":"[b]TINY DP BOOTED TEEN GETS HER BOTTY LOOTED-SILVERDUST\nFLASH HERE[URL]http://www.swfcabin.com/open/1254503033[/URL]TURN YOUR SPEAKERS UP\n[url=http://bender1.zikuka.com/img/2009/10/02/8297ddab46b596aa42b1efb9ccbe8237/image31445937.jpg][img]http://bender1.zikuka.com/img/2009/10/02/6f091f2c873d2f9284f5ad56170c46d4/thumb31445953.jpg[/img][/url]  [url=http://bender1.zikuka.com/img/2009/10/02/5b145ec502f84c8f35568283719afde7/image31449171.jpg][img]http://bender1.zikuka.com/img/2009/10/02/ec080101dc541a8813867361499a1b29/thumb31449187.jpg[/img][/url]\n\n[url=http://bender1.zikuka.com/img/2009/10/02/e3ca5f0b8433062522db7bcf0885754c/image31451500.jpg][img]http://bender1.zikuka.com/img/2009/10/02/cb7a6cee79b58df695dbc2693a809a10/thumb31451515.jpg[/img][/url]  [url=http://bender1.zikuka.com/img/2009/10/02/0b5184cf98301c8e61c401c61643bc80/image31454859.jpg][img]http://bender1.zikuka.com/img/2009/10/02/a90d3cbeca86084c3624087bbfd72507/thumb31454890.jpg[/img][/url]  [url=http://bender1.zikuka.com/img/2009/10/02/728676bf3f1f6c58906fbcb96e623910/image31457859.jpg][img]http://bender1.zikuka.com/img/2009/10/02/ca44af5a7a5b72048d5eea73cb53cf0d/thumb31457890.jpg[/img][/url]  [url=http://bender1.zikuka.com/img/2009/10/02/0245e16cbf7120787d06375b6dd891a6/image31460843.jpg][img]http://bender1.zikuka.com/img/2009/10/02/6ae28d9eacefc38c09a65e34d78a7c20/thumb31460875.jpg[/img][/url]\n\n[url=http://bender1.zikuka.com/img/2009/10/02/f8b261c0319e712f5e54167106b1e309/image31465312.jpg][img]http://bender1.zikuka.com/img/2009/10/02/359d23b2d2e58db5dcef4d93dc1b73c0/thumb31465343.jpg[/img][/url]  [url=http://bender1.zikuka.com/img/2009/10/02/b8e93865cd4a848ad1695fd5e19b875d/image31468000.jpg][img]http://bender1.zikuka.com/img/2009/10/02/e141ac4ea4bb5a4aaea514e2be306b04/thumb31468046.jpg[/img][/url]  [url=http://bender1.zikuka.com/img/2009/10/02/c716a8c428e4a945df085e63275fc2e4/image31471968.jpg][img]http://bender1.zikuka.com/img/2009/10/02/b8590a6bad4c2096c7b674695b4b6807/thumb31472000.jpg[/img][/url]  [url=http://bender1.zikuka.com/img/2009/10/02/96afe6f1a8ebb09f80b2d38e8f291a6f/image31474265.jpg][img]http://bender1.zikuka.com/img/2009/10/02/0ae2efa54cc777cd02cd04c60a259a5d/thumb31474296.jpg[/img][/url]\n\n[url=http://bender1.zikuka.com/img/2009/10/02/f98c2edc406f4bd897ab126b7a6bbea0/image31476671.jpg][img]http://bender1.zikuka.com/img/2009/10/02/f3503ee7b7631f78a86af6a83bb1d444/thumb31476687.jpg[/img][/url]  [url=http://bender1.zikuka.com/img/2009/10/02/8311aec51a5b8e72c20b0e7daa311f81/image31478937.jpg][img]http://bender1.zikuka.com/img/2009/10/02/66cb512457152fe76a16ce0d71369a33/thumb31478968.jpg[/img][/url]  [url=http://bender1.zikuka.com/img/2009/10/02/4dd8c5c693af8256c01762109799c39b/image31481312.jpg][img]http://bender1.zikuka.com/img/2009/10/02/6569b691a797c49cfc5d275d6134c21a/thumb31481328.jpg[/img][/url]  [url=http://bender1.zikuka.com/img/2009/10/02/1e98e51f389733318f9cb42d6596c5f8/image31483828.jpg][img]http://bender1.zikuka.com/img/2009/10/02/c751e90066d181b305891d189a91bf61/thumb31483859.jpg[/img][/url]\n\n[/center][center][b][color=#999999]Click to enlarge[/color][/b][/center]\n\nFormat                           : AVI\nFormat/Info                      : Audio Video Interleave\nFile size                        : 174 MiB\nDuration                         : 25mn 39s\nOverall bit rate                 : 946 Kbps\nWriting library                  : TfrmProgress\n\nVideo\nFormat                           : MPEG-4 Visual\nFormat profile                   : Streaming Video@L1\nFormat settings, BVOP            : Yes\nFormat settings, QPel            : No\nFormat settings, GMC             : No warppoints\nFormat settings, Matrix          : Default\nMuxing mode                      : Packed bitstream\nCodec ID                         : XVID\nCodec ID/Hint                    : XviD\nDuration                         : 25mn 39s\nBit rate                         : 751 Kbps\nWidth                            : 576 pixels\nHeight                           : 320 pixels\nDisplay aspect ratio             : 16/9\nFrame rate                       : 29.970 fps\nResolution                       : 24 bits\nColorimetry                      : 4:2:0\nScan type                        : Progressive\nBits/(Pixel*Frame)               : 0.136\nStream size                      : 138 MiB (79%)\nWriting library                  : XviD \n\nAudio\nFormat                           : MPEG Audio\nFormat version                   : Version 1\nFormat profile                   : Layer 3\nCodec ID                         : 55\nCodec ID/Hint                    : MP3\nDuration                         : 25mn 39s\nBit rate mode                    : Variable\nBit rate                         : 176 Kbps\nChannel(s)                       : 2 channels\nSampling rate                    : 48.0 KHz\nResolution                       : 16 bits\nStream size                      : 32.2 MiB (19%)\nAlignment                        : Aligned on interleaves\nInterleave, duration             : 24 ms (0.72 video\nScreens are posted for this file,how-ever some sites do not allow all picture hosts(and i do not have time upload pics to a certain host for a specific site).\nI will not respond in this thread to any comments from now on(unless you are a member of a private site or are a respected member of a public site).\nThankyou to all the REAL contributors to the sites who keep the faith everyday.\nLeechers,Ass-wipes,Zero posters keep on moaning into our deaf ears.\nContact? Old Skool-respected only (you know how);-)\n[url]http://www.fhqhosting.com/ui/1ggggg.swf[/url]\n[IMG]http://i43.servimg.com/u/f43/12/33/79/02/potpis10.gif[/IMG]\n[IMG]http://www.myspaceninja.com/images/gg/glitterhkisses.gif[/IMG][/b]","torrent":{"xt":"urn:btih:3fa504563b17e7d95596bba773e2b67b52bb6bc9","amp;dn":"TINY+DP+BOOTED+TEEN+GETS+HER+BOTTY+LOOTED-SILVERDUST.avi","amp;tr":["udp%3A%2F%2Ftracker.openbittorrent.com%3A80","udp%3A%2F%2Fopen.demonii.com%3A1337","udp%3A%2F%2Ftracker.coppersurfer.tk%3A6969","udp%3A%2F%2Fexodus.desync.com%3A6969"],"infoHash":"3fa504563b17e7d95596bba773e2b67b52bb6bc9","infoHashBuffer":{"type":"Buffer","data":[63,165,4,86,59,23,231,217,85,150,187,167,115,226,182,123,82,187,107,201]},"announce":[],"urlList":[]}}